{
  "accessors": [
    {
      "bufferView": 0,
      "componentType": 5126,
      "count": 4474,
      "max": [
        22.582019805908203,
        10.349575996398926,
        20.915468215942383
      ],
      "min": [
        -20.22610092163086,
        -10.349599838256836,
        -1.1005799770355225
      ],
      "type": "VEC3"
    },
    {
      "bufferView": 1,
      "componentType": 5125,
      "count": 7886,
      "type": "SCALAR"
    },
    {
      "bufferView": 2,
      "componentType": 5126,
      "count": 4474,
      "type": "VEC3"
    },
    {
      "bufferView": 3,
      "componentType": 5126,
      "count": 4474,
      "type": "VEC4"
    },
    {
      "bufferView": 4,
      "componentType": 5126,
      "count": 4474,
      "type": "VEC2"
    },
    {
      "bufferView": 5,
      "componentType": 5126,
      "count": 1872,
      "max": [
        18.572509765625,
        8.913578987121582,
        -0.088984914124012
      ],
      "min": [
        -2.9175100326538086,
        -8.913579940795898,
        -0.858834981918335
      ],
      "type": "VEC3"
    },
    {
      "bufferView": 6,
      "componentType": 5125,
      "count": 3022,
      "type": "SCALAR"
    },
    {
      "bufferView": 7,
      "componentType": 5126,
      "count": 1872,
      "type": "VEC3"
    },
    {
      "bufferView": 8,
      "componentType": 5126,
      "count": 1872,
      "type": "VEC4"
    },
    {
      "bufferView": 9,
      "componentType": 5126,
      "count": 1872,
      "type": "VEC2"
    },
    {
      "bufferView": 10,
      "componentType": 5126,
      "count": 128,
      "max": [
        1.2025312185287476,
        1.4129225015640259,
        1.1054461002349854
      ],
      "min": [
        -1.202530026435852,
        -1.4129199981689453,
        -0.5234929919242859
      ],
      "type": "VEC3"
    },
    {
      "bufferView": 11,
      "componentType": 5125,
      "count": 194,
      "type": "SCALAR"
    },
    {
      "bufferView": 12,
      "componentType": 5126,
      "count": 128,
      "type": "VEC3"
    },
    {
      "bufferView": 13,
      "componentType": 5126,
      "count": 128,
      "type": "VEC4"
    },
    {
      "bufferView": 14,
      "componentType": 5126,
      "count": 128,
      "type": "VEC2"
    }
  ],
  "asset": {
    "version": "2.0"
  },
  "bufferViews": [
    {
      "buffer": 0,
      "byteLength": 53688,
      "target": 34962
    },
    {
      "buffer": 1,
      "byteLength": 31544,
      "target": 34963
    },
    {
      "buffer": 2,
      "byteLength": 53688,
      "target": 34962
    },
    {
      "buffer": 3,
      "byteLength": 71584,
      "target": 34962
    },
    {
      "buffer": 4,
      "byteLength": 35792,
      "target": 34962
    },
    {
      "buffer": 5,
      "byteLength": 22464,
      "target": 34962
    },
    {
      "buffer": 6,
      "byteLength": 12088,
      "target": 34963
    },
    {
      "buffer": 7,
      "byteLength": 22464,
      "target": 34962
    },
    {
      "buffer": 8,
      "byteLength": 29952,
      "target": 34962
    },
    {
      "buffer": 9,
      "byteLength": 14976,
      "target": 34962
    },
    {
      "buffer": 10,
      "byteLength": 1536,
      "target": 34962
    },
    {
      "buffer": 11,
      "byteLength": 776,
      "target": 34963
    },
    {
      "buffer": 12,
      "byteLength": 1536,
      "target": 34962
    },
    {
      "buffer": 13,
      "byteLength": 2048,
      "target": 34962
    },
    {
      "buffer": 14,
      "byteLength": 1024,
      "target": 34962
    }
  ],
  "buffers": [
    {
      "byteLength": 53688,
      "uri": "data:application/octet-stream;base64,"
    },
    {
      "byteLength": 31544,
      "uri": "data:application/octet-stream;base64,"
    },
    {
      "byteLength": 53688,
      "uri": "data:application/octet-stream;base64,"
    },
    {
      "byteLength": 71584,
      "uri": "data:application/octet-stream;base64,"
    },
    {
      "byteLength": 35792,
      "uri": "data:application/octet-stream;base64,"
    },
    {
      "byteLength": 22464,
      "uri": "data:application/octet-stream;base64,"
    },
    {
      "byteLength": 12088,
      "uri": "data:application/octet-stream;base64,"
    },
    {
      "byteLength": 22464,
      "uri": "data:application/octet-stream;base64,"
    },
    {
      "byteLength": 29952,
      "uri": "data:application/octet-stream;base64,"
    },
    {
      "byteLength": 14976,
      "uri": "data:application/octet-stream;base64,"
    },
    {
      "byteLength": 1536,
      "uri": "data:application/octet-stream;base64,"
    },
    {
      "byteLength": 776,
      "uri": "data:application/octet-stream;base64,"
    },
    {
      "byteLength": 1536,
      "uri": "data:application/octet-stream;base64,"
    },
    {
      "byteLength": 2048,
      "uri": "data:application/octet-stream;base64,"
    },
    {
      "byteLength": 1024,
      "uri": "data:application/octet-stream;base64,"
    }
  ],
  "images": [
    {
      "uri": "textures/t_church_base_color.png"
    },
    {
      "uri": "textures/t_church_normals.png"
    },
    {
      "uri": "textures/t_church_roughness.png"
    }
  ],
  "materials": [
    {
      "name": "m_church",
      "normalTexture": {
        "index": 1
      },
      "pbrMetallicRoughness": {
        "baseColorFactor": [
          0.800000011920929,
          0.800000011920929,
          0.800000011920929,
          1.0
        ],
        "baseColorTexture": {
          "index": 0
        },
        "metallicRoughnessTexture": {
          "index": 2
        }
      }
    }
  ],
  "meshes": [
    {
      "name": "walls_m_church_0",
      "primitives": [
        {
          "attributes": {
            "NORMAL": 2,
            "POSITION": 0,
            "TANGENT": 3,
            "TEXCOORD_0": 4
          },
          "indices": 1,
          "material": 0,
          "mode": 5
        }
      ]
    },
    {
      "name": "benches_m_church_0",
      "primitives": [
        {
          "attributes": {
            "NORMAL": 7,
            "POSITION": 5,
            "TANGENT": 8,
            "TEXCOORD_0": 9
          },
          "indices": 6,
          "material": 0,
          "mode": 5
        }
      ]
    },
    {
      "name": "podium_m_church_0",
      "primitives": [
        {
          "attributes": {
            "NORMAL": 12,
            "POSITION": 10,
            "TANGENT": 13,
            "TEXCOORD_0": 14
          },
          "indices": 11,
          "material": 0,
          "mode": 5
        }
      ]
    }
  ],
  "nodes": [
    {
      "mesh": 0,
      "name": "walls_m_church_0"
    },
    {
      "children": [
        0
      ],
      "name": "walls",
      "rotation": [
        -0.7071068387877492,
        0.0,
        0.0,
        0.7071067235853412
      ],
      "scale": [
        56.94110107421875,
        56.94110107421875,
        56.94110107421875
      ],
      "translation": [
        -46.74470138549805,
        65.4916000366211,
        1.4480700492858887
      ]
    },
    {
      "mesh": 1,
      "name": "benches_m_church_0"
    },
    {
      "children": [
        2
      ],
      "name": "benches",
      "rotation": [
        -0.7071068387877492,
        0.0,
        0.0,
        0.7071067235853412
      ],
      "scale": [
        56.94110107421875,
        56.94110107421875,
        56.94110107421875
      ],
      "translation": [
        -281.2909851074219,
        51.812400817871094,
        1.4480700492858887
      ]
    },
    {
      "mesh": 2,
      "name": "podium_m_church_0"
    },
    {
      "children": [
        4
      ],
      "name": "podium",
      "rotation": [
        -0.7071068387878245,
        0.0,
        0.0,
        0.7071067235852658
      ],
      "scale": [
        56.94110107421875,
        92.03900146484375,
        56.94110107421875
      ],
      "translation": [
        -859.2789916992188,
        65.1249008178711,
        -2.2732200622558594
      ]
    },
    {
      "children": [
        1,
        3,
        5
      ],
      "name": "RootNode"
    },
    {
      "children": [
        6
      ],
      "name": "Brutalist Church",
      "rotation": [
        1.1102230246251565e-16,
        0.0,
        0.0,
        1.0
      ],
      "scale": [
        0.009999999776482582,
        0.009999999776482582,
        0.009999999776482582
      ],
      "translation": [
        0.0,
        0.0,
        0.0
      ]
    }
  ],
  "samplers": [
    {
      "magFilter": 9729,
      "minFilter": 9729,
      "wrapS": 10497,
      "wrapT": 10497
    },
    {
      "magFilter": 9729,
      "minFilter": 9729,
      "wrapS": 10497,
      "wrapT": 10497
    },
    {
      "magFilter": 9729,
      "minFilter": 9729,
      "wrapS": 10497,
      "wrapT": 10497
    }
  ],
  "scene": 0,
  "scenes": [
    {
      "nodes": [
        7
      ]
    }
  ],
  "textures": [
    {
      "sampler": 0,
      "source": 0
    },
    {
      "sampler": 1,
      "source": 1
    },
    {
      "sampler": 2,
      "source": 2
    }
  ]
}
